<?xml version="1.0" standalone="no"?>
<!DOCTYPE svg PUBLIC "-//W3C//DTD SVG 20010904//EN"
 "http://www.w3.org/TR/2001/REC-SVG-20010904/DTD/svg10.dtd">
<svg version="1.0" xmlns="http://www.w3.org/2000/svg"
 width="32.000000pt" height="32.000000pt" viewBox="0 0 32.000000 32.000000"
 preserveAspectRatio="xMidYMid meet">

<g transform="translate(0.000000,32.000000) scale(0.100000,-0.100000)"
fill="#000000" stroke="none">
<path d="M52 298 c-17 -17 -17 -259 0 -276 16 -16 200 -16 216 0 17 17 17 259
0 276 -16 16 -200 16 -216 0z m213 -138 l0 -135 -105 0 -105 0 -3 124 c-1 69
0 131 2 138 4 11 30 13 108 11 l103 -3 0 -135z"/>
<path d="M60 255 l0 -35 100 0 100 0 0 35 0 35 -100 0 -100 0 0 -35z m190 16
c0 -5 -6 -8 -12 -7 -7 0 -13 -3 -13 -9 0 -5 6 -9 13 -9 6 1 12 -2 12 -7 0 -5
-40 -9 -90 -9 -89 0 -90 0 -90 25 0 25 1 25 90 25 50 0 90 -4 90 -9z"/>
<path d="M60 175 c0 -21 5 -25 30 -25 25 0 30 4 30 25 0 21 -5 25 -30 25 -25
0 -30 -4 -30 -25z m50 0 c0 -8 -9 -15 -20 -15 -11 0 -20 7 -20 15 0 8 9 15 20
15 11 0 20 -7 20 -15z"/>
<path d="M130 175 c0 -21 5 -25 30 -25 25 0 30 4 30 25 0 21 -5 25 -30 25 -25
0 -30 -4 -30 -25z m50 0 c0 -8 -9 -15 -20 -15 -11 0 -20 7 -20 15 0 8 9 15 20
15 11 0 20 -7 20 -15z"/>
<path d="M200 175 c0 -21 5 -25 30 -25 25 0 30 4 30 25 0 21 -5 25 -30 25 -25
0 -30 -4 -30 -25z m50 0 c0 -8 -9 -15 -20 -15 -11 0 -20 7 -20 15 0 8 9 15 20
15 11 0 20 -7 20 -15z"/>
<path d="M60 115 c0 -21 5 -25 30 -25 25 0 30 4 30 25 0 21 -5 25 -30 25 -25
0 -30 -4 -30 -25z m50 0 c0 -8 -9 -15 -20 -15 -11 0 -20 7 -20 15 0 8 9 15 20
15 11 0 20 -7 20 -15z"/>
<path d="M130 115 c0 -21 5 -25 30 -25 25 0 30 4 30 25 0 21 -5 25 -30 25 -25
0 -30 -4 -30 -25z m50 0 c0 -8 -9 -15 -20 -15 -11 0 -20 7 -20 15 0 8 9 15 20
15 11 0 20 -7 20 -15z"/>
<path d="M200 85 c0 -54 0 -55 30 -55 30 0 30 1 30 55 0 54 0 55 -30 55 -30 0
-30 -1 -30 -55z m50 0 c0 -38 -3 -45 -20 -45 -17 0 -20 7 -20 45 0 38 3 45 20
45 17 0 20 -7 20 -45z"/>
<path d="M60 55 c0 -21 5 -25 30 -25 25 0 30 4 30 25 0 21 -5 25 -30 25 -25 0
-30 -4 -30 -25z m50 0 c0 -8 -9 -15 -20 -15 -11 0 -20 7 -20 15 0 8 9 15 20
15 11 0 20 -7 20 -15z"/>
<path d="M130 55 c0 -21 5 -25 30 -25 25 0 30 4 30 25 0 21 -5 25 -30 25 -25
0 -30 -4 -30 -25z m50 0 c0 -8 -9 -15 -20 -15 -11 0 -20 7 -20 15 0 8 9 15 20
15 11 0 20 -7 20 -15z"/>
</g>
</svg>
